<mxfile host="app.diagrams.net" modified="2021-03-07T19:00:40.878Z" agent="5.0 (Windows NT 10.0; Win64; x64) AppleWebKit/537.36 (KHTML, like Gecko) Chrome/89.0.4389.72 Safari/537.36" etag="Hzs-ZrLJPPNyYsksQ1Jh" version="14.4.4" type="github">
  <diagram id="VuodknzAslncFI4TgPj1" name="Page-1">
    <mxGraphModel dx="868" dy="450" grid="1" gridSize="10" guides="1" tooltips="1" connect="1" arrows="1" fold="1" page="1" pageScale="1" pageWidth="850" pageHeight="1100" math="0" shadow="0">
      <root>
        <mxCell id="0" />
        <mxCell id="1" parent="0" />
        <mxCell id="hHBUbA6MrMZbCdPLhoby-1" value="Microsoft SQL Server" style="shape=cylinder3;whiteSpace=wrap;html=1;boundedLbl=1;backgroundOutline=1;size=15;" vertex="1" parent="1">
          <mxGeometry x="60" y="50" width="60" height="80" as="geometry" />
        </mxCell>
        <mxCell id="hHBUbA6MrMZbCdPLhoby-2" value="MySql" style="shape=cylinder3;whiteSpace=wrap;html=1;boundedLbl=1;backgroundOutline=1;size=15;" vertex="1" parent="1">
          <mxGeometry x="60" y="160" width="60" height="80" as="geometry" />
        </mxCell>
        <mxCell id="hHBUbA6MrMZbCdPLhoby-3" value="MongoDB" style="shape=cylinder3;whiteSpace=wrap;html=1;boundedLbl=1;backgroundOutline=1;size=15;" vertex="1" parent="1">
          <mxGeometry x="60" y="270" width="60" height="80" as="geometry" />
        </mxCell>
        <mxCell id="hHBUbA6MrMZbCdPLhoby-4" value="Cuchbase" style="shape=cylinder3;whiteSpace=wrap;html=1;boundedLbl=1;backgroundOutline=1;size=15;" vertex="1" parent="1">
          <mxGeometry x="60" y="380" width="60" height="80" as="geometry" />
        </mxCell>
      </root>
    </mxGraphModel>
  </diagram>
</mxfile>
